# xmcd CD database file
#
# Track frame offsets:
#	150
#	22143
#	36376
#	53520
#	70706
#	85370
#	102640
#	118668
#	139241
#	158879
#	176302
#
# Disc length: 2608 seconds
#
# Revision: 0
# Processed by: cddbd v1.5.1PL2 Copyright (c) Steve Scherf et al.
# Submitted via: CDex 1.51
#
DISCID=960a2e0b
DTITLE=S.E.N.S. - Hotel Asia
DYEAR=2005
DGENRE=New Age
TTITLE0=Brave Soul
TTITLE1=Little Miracles
TTITLE2=Naked Truth
TTITLE3=Sorrow
TTITLE4=Willow Bridge
TTITLE5=Remembering Mereverie
TTITLE6=Hallucination
TTITLE7=Rain
TTITLE8=Asian Crossroads
TTITLE9=Our Pure Ring
TTITLE10=Coming Home
EXTD=YEAR: 2005
EXTT0=
EXTT1=
EXTT2=
EXTT3=
EXTT4=
EXTT5=
EXTT6=
EXTT7=
EXTT8=
EXTT9=
EXTT10=
PLAYORDER=
